<?xml version="1.0" encoding="iso-8859-1"?>
<!-- Generator: Adobe Illustrator 18.0.0, SVG Export Plug-In . SVG Version: 6.00 Build 0)  -->
<!DOCTYPE svg PUBLIC "-//W3C//DTD SVG 1.1//EN" "http://www.w3.org/Graphics/SVG/1.1/DTD/svg11.dtd">
<svg version="1.1" id="Capa_1" xmlns="http://www.w3.org/2000/svg" xmlns:xlink="http://www.w3.org/1999/xlink" x="0px" y="0px"
	 viewBox="0 0 213.138 213.138" style="enable-background:new 0 0 213.138 213.138;" xml:space="preserve">
<g>
	<path d="M42.848,46.449l0.016,0.018l56.205,66.601v85.07H70.163c-4.143,0-7.5,3.357-7.5,7.5c0,4.143,3.357,7.5,7.5,7.5h36.406
		h36.406c4.143,0,7.5-3.357,7.5-7.5c0-4.143-3.357-7.5-7.5-7.5h-28.906v-85.07l56.209-66.604l0.01-0.011l28.789-34.115
		c1.883-2.231,2.301-5.351,1.07-7.997C198.918,1.693,196.264,0,193.346,0H19.792c-2.918,0-5.572,1.693-6.801,4.34
		c-1.231,2.648-0.813,5.767,1.07,7.997L42.848,46.449z M106.569,98.697L64.786,49.186h83.566L106.569,98.697z M177.202,15
		l-16.189,19.186H52.127L35.936,15H177.202z"/>
</g>
<g>
</g>
<g>
</g>
<g>
</g>
<g>
</g>
<g>
</g>
<g>
</g>
<g>
</g>
<g>
</g>
<g>
</g>
<g>
</g>
<g>
</g>
<g>
</g>
<g>
</g>
<g>
</g>
<g>
</g>
</svg>
