<?xml version="1.0" encoding="iso-8859-1"?>
<!-- Generator: Adobe Illustrator 19.0.0, SVG Export Plug-In . SVG Version: 6.00 Build 0)  -->
<svg version="1.1" id="Capa_1" xmlns="http://www.w3.org/2000/svg" xmlns:xlink="http://www.w3.org/1999/xlink" x="0px" y="0px"
	 viewBox="0 0 512 512" style="enable-background:new 0 0 512 512;" xml:space="preserve">
<g>
	<g>
		<path d="M385.712,165l-15-60H271V45c0-8.271,6.729-15,15-15h75V0h-75c-24.813,0-45,20.187-45,45v60h-99.711l-15,60H93v30h31.136
			l25,317h213.727l25-317H419v-30H385.712z M164.711,135h182.577l7.5,30H157.211L164.711,135z M335.137,482H176.864l-2.366-30
			h163.005L335.137,482z M339.868,422H172.132L154.23,195h203.54L339.868,422z"/>
	</g>
</g>
<g>
</g>
<g>
</g>
<g>
</g>
<g>
</g>
<g>
</g>
<g>
</g>
<g>
</g>
<g>
</g>
<g>
</g>
<g>
</g>
<g>
</g>
<g>
</g>
<g>
</g>
<g>
</g>
<g>
</g>
</svg>
