<?xml version="1.0" encoding="iso-8859-1"?>
<!-- Generator: Adobe Illustrator 17.1.0, SVG Export Plug-In . SVG Version: 6.00 Build 0)  -->
<!DOCTYPE svg PUBLIC "-//W3C//DTD SVG 1.1//EN" "http://www.w3.org/Graphics/SVG/1.1/DTD/svg11.dtd">
<svg version="1.1" id="Capa_1" xmlns="http://www.w3.org/2000/svg" xmlns:xlink="http://www.w3.org/1999/xlink" x="0px" y="0px"
	 viewBox="0 0 417.157 417.157" style="enable-background:new 0 0 417.157 417.157;" xml:space="preserve">
<g>
	<path d="M417.157,304.707c0-22.738-16.747-41.639-38.555-45.016c-27.187-64.644-94.661-107.637-170.024-107.637
		S65.742,195.047,38.555,259.691C16.747,263.068,0,281.969,0,304.707c0,21.582,15.079,39.694,35.242,44.368l11.316,50.303
		c1.027,4.563,5.079,7.805,9.756,7.805h304.528c4.677,0,8.729-3.242,9.756-7.805l11.316-50.303
		C402.078,344.401,417.157,326.289,417.157,304.707z M352.842,387.184H64.315l-8.431-37.479
		c16.744-1.868,26.729-8.141,35.705-13.785c9.62-6.048,17.927-11.271,35.433-11.271c17.509,0,25.828,5.225,35.46,11.274
		c10.7,6.72,22.828,14.337,46.097,14.337s35.397-7.617,46.097-14.337c9.632-6.049,17.951-11.274,35.46-11.274
		c17.506,0,25.814,5.223,35.433,11.271c8.976,5.644,18.961,11.917,35.705,13.785L352.842,387.184z M371.647,330.259
		c-17.506,0-25.814-5.223-35.433-11.271c-10.691-6.722-22.808-14.34-46.078-14.34c-23.269,0-35.397,7.617-46.097,14.337
		c-9.632,6.049-17.951,11.274-35.46,11.274s-25.828-5.225-35.46-11.274c-10.7-6.72-22.828-14.337-46.097-14.337
		c-23.271,0-35.388,7.618-46.078,14.34c-9.62,6.048-17.927,11.271-35.433,11.271C31.444,330.259,20,318.796,20,304.707
		c0-14.089,11.462-25.552,25.552-25.552c4.169,0,7.901-2.587,9.364-6.491c22.55-60.177,84.303-100.609,153.663-100.609
		s131.112,40.432,153.663,100.609c1.463,3.904,5.195,6.491,9.364,6.491c14.089,0,25.552,11.463,25.552,25.552
		C397.157,318.796,385.713,330.259,371.647,330.259z"/>
	<path d="M208.579,212.977c-5.523,0-10,4.477-10,10v26.969c0,5.523,4.477,10,10,10s10-4.477,10-10v-26.969
		C218.579,217.455,214.102,212.977,208.579,212.977z"/>
	<path d="M267.83,212.95c-3.46-4.304-9.753-4.99-14.059-1.53c-4.305,3.46-4.99,9.754-1.53,14.059l16.895,21.021
		c1.975,2.458,4.875,3.736,7.801,3.736c2.198,0,4.411-0.722,6.258-2.206c4.305-3.46,4.99-9.754,1.53-14.059L267.83,212.95z"/>
	<path d="M163.387,211.42c-4.305-3.46-10.599-2.774-14.059,1.53l-16.895,21.021c-3.46,4.305-2.775,10.6,1.53,14.059
		c1.847,1.485,4.06,2.206,6.258,2.206c2.926,0,5.826-1.278,7.801-3.736l16.895-21.021
		C168.376,221.174,167.691,214.879,163.387,211.42z"/>
	<path d="M171.579,126.468c0,5.523,4.477,10,10,10s10-4.477,10-10c0-11.496,2.021-16.876,4.361-23.107
		c2.643-7.037,5.639-15.012,5.639-30.14s-2.996-23.103-5.639-30.14c-2.34-6.231-4.361-11.612-4.361-23.107c0-5.523-4.477-10-10-10
		s-10,4.477-10,10c0,15.128,2.996,23.103,5.639,30.14c2.34,6.231,4.361,11.612,4.361,23.107c0,11.496-2.021,16.877-4.361,23.108
		C174.574,103.365,171.579,111.34,171.579,126.468z"/>
	<path d="M215.579,126.468c0,5.523,4.477,10,10,10s10-4.477,10-10c0-11.496,2.021-16.876,4.361-23.107
		c2.643-7.037,5.639-15.012,5.639-30.14s-2.996-23.103-5.639-30.14c-2.34-6.231-4.361-11.612-4.361-23.107c0-5.523-4.477-10-10-10
		s-10,4.477-10,10c0,15.128,2.996,23.103,5.639,30.14c2.34,6.231,4.361,11.612,4.361,23.107c0,11.496-2.021,16.877-4.361,23.108
		C218.574,103.365,215.579,111.34,215.579,126.468z"/>
</g>
<g>
</g>
<g>
</g>
<g>
</g>
<g>
</g>
<g>
</g>
<g>
</g>
<g>
</g>
<g>
</g>
<g>
</g>
<g>
</g>
<g>
</g>
<g>
</g>
<g>
</g>
<g>
</g>
<g>
</g>
</svg>
