<?xml version="1.0" encoding="iso-8859-1"?>
<!-- Generator: Adobe Illustrator 19.0.0, SVG Export Plug-In . SVG Version: 6.00 Build 0)  -->
<svg version="1.1" id="Layer_1" xmlns="http://www.w3.org/2000/svg" xmlns:xlink="http://www.w3.org/1999/xlink" x="0px" y="0px"
	 viewBox="0 0 511.999 511.999" style="enable-background:new 0 0 511.999 511.999;" xml:space="preserve">
<g>
	<g>
		<path d="M315.949,92.371c-18.508,0-33.566,14.998-33.566,33.436c0.001,18.436,15.058,33.435,33.566,33.435
			c18.508,0,33.567-14.998,33.567-33.435C349.516,107.37,334.458,92.371,315.949,92.371z M315.949,143.568
			c-9.866,0-17.893-7.967-17.893-17.761c0.001-9.794,8.027-17.762,17.893-17.762s17.894,7.968,17.894,17.762
			S325.816,143.568,315.949,143.568z"/>
	</g>
</g>
<g>
	<g>
		<path d="M379.636,20.343L364.151,4.939C360.95,1.754,356.696,0,352.174,0s-8.776,1.754-11.979,4.939l-15.483,15.404
			c-3.212,3.196-4.981,7.449-4.981,11.975c0,4.524,1.769,8.776,4.982,11.973l15.484,15.407c3.203,3.183,7.455,4.936,11.978,4.936
			s8.776-1.753,11.978-4.938l15.484-15.405c3.211-3.197,4.98-7.449,4.98-11.972C384.617,27.794,382.848,23.543,379.636,20.343z
			 M368.58,33.181l-15.482,15.403c-0.313,0.311-0.675,0.376-0.924,0.376c-0.25,0-0.612-0.066-0.925-0.375l-15.481-15.404
			c-0.301-0.299-0.364-0.634-0.364-0.863c0-0.23,0.064-0.565,0.363-0.864l15.481-15.402c0.313-0.312,0.676-0.377,0.925-0.377
			c0.249,0,0.611,0.066,0.925,0.377l15.481,15.401c0.301,0.299,0.364,0.635,0.364,0.865
			C368.942,32.546,368.878,32.883,368.58,33.181z"/>
	</g>
</g>
<g>
	<g>
		<path d="M110.714,136.644l-12.513-12.446c-2.871-2.857-6.685-4.43-10.74-4.43s-7.87,1.574-10.741,4.429l-12.514,12.447
			c-2.883,2.868-4.47,6.684-4.47,10.746c0,4.06,1.588,7.875,4.469,10.74l12.516,12.452c2.871,2.855,6.685,4.427,10.74,4.427
			s7.87-1.574,10.739-4.429l12.512-12.448c2.883-2.867,4.47-6.683,4.471-10.743C115.184,143.329,113.597,139.513,110.714,136.644z
			 M87.459,159.159L75.63,147.388l11.83-11.768l11.829,11.768L87.459,159.159z"/>
	</g>
</g>
<g>
	<g>
		<path d="M436.452,160.127l-12.513-12.447c-2.87-2.857-6.685-4.43-10.742-4.43c-4.054,0-7.869,1.574-10.741,4.429l-12.513,12.448
			c-2.883,2.868-4.47,6.683-4.47,10.745c0.001,4.06,1.588,7.875,4.469,10.74l12.517,12.453c2.872,2.856,6.686,4.426,10.739,4.426
			c4.056,0,7.87-1.574,10.74-4.429l12.512-12.448c2.883-2.867,4.47-6.682,4.471-10.743
			C440.922,166.811,439.335,162.996,436.452,160.127z M413.199,182.642l-11.829-11.77l11.829-11.769l11.829,11.769L413.199,182.642z
			"/>
	</g>
</g>
<g>
	<g>
		<path d="M172.78,262.5l-1.078-0.56c-3.843-1.996-8.572-0.499-10.568,3.341c-1.995,3.84-0.499,8.571,3.341,10.567l1.078,0.56
			c1.155,0.6,2.391,0.885,3.607,0.885c2.832,0,5.565-1.54,6.961-4.226C178.117,269.227,176.621,264.496,172.78,262.5z"/>
	</g>
</g>
<g>
	<g>
		<path d="M252.694,87.246c0-16.372-6.392-31.747-17.996-43.293c-7.8-7.763-20.494-7.763-28.297,0l-29.825,29.674
			c-3.068,3.052-3.08,8.014-0.028,11.082c3.052,3.068,8.014,3.079,11.083,0.027l29.823-29.673c1.706-1.698,4.482-1.698,6.188,0
			c1.407,1.4,2.7,2.883,3.897,4.424c-4.813,1.284-8.082,6.945-5.991,11.623c1.156,2.587,3.696,4.383,6.52,4.611
			c2.644,0.213,4.836-0.936,6.66-2.752c1.499,4.545,2.291,9.347,2.291,14.275c0,12.169-4.75,23.598-13.376,32.18
			c-12.461,12.398-30.369,16.137-46.128,11.243c3.107-3.911,1.534-8.989-2.116-11.849c-4.389-3.439-11.097-1.259-12.476,4.203
			c-1.415-1.108-2.785-2.299-4.09-3.596c-0.813-0.809-1.261-1.883-1.261-3.022c0.001-1.139,0.448-2.21,1.261-3.019l6.854-6.818
			c3.068-3.053,3.081-8.015,0.028-11.084c-3.053-3.068-8.014-3.079-11.083-0.028l-6.854,6.818c-3.791,3.771-5.88,8.789-5.881,14.128
			c-0.001,5.341,2.088,10.36,5.881,14.133c11.979,11.923,27.709,17.882,43.445,17.885c-3.93,0-7.846,0.001,0.015,0
			c7.856-0.001,3.944-0.001,0.016,0c15.732-0.006,31.467-5.965,43.443-17.88C246.303,118.993,252.695,103.618,252.694,87.246z"/>
	</g>
</g>
<g>
	<g>
		<path d="M201.038,108.239l-0.862-0.857c-3.07-3.05-8.032-3.035-11.082,0.033c-3.051,3.07-3.036,8.031,0.032,11.083l0.862,0.857
			c1.529,1.519,3.527,2.278,5.524,2.278c2.014,0,4.027-0.771,5.558-2.312C204.122,116.251,204.107,111.29,201.038,108.239z"/>
	</g>
</g>
<g>
	<g>
		<path d="M222.597,88.521l-0.862-0.859c-3.066-3.056-8.029-3.047-11.082,0.02c-3.055,3.067-3.046,8.028,0.02,11.082l0.862,0.859
			c1.529,1.524,3.53,2.285,5.531,2.285c2.01,0,4.021-0.768,5.552-2.305C225.672,96.537,225.662,91.575,222.597,88.521z"/>
	</g>
</g>
<g>
	<g>
		<path d="M497.428,290.544c9.387-16.741,6.613-37.859-7.269-51.671c-8.207-8.164-19.114-12.659-30.715-12.659
			c-7.475,0-14.708,1.875-21.148,5.453c-6.522-2.271-12.8-3.418-18.712-3.418c-2.082,0-4.092,0.155-6.029,0.444
			c-2.613-9.708-8.501-18.399-16.853-24.401c-3.516-2.526-8.412-1.724-10.937,1.791c-2.527,3.515-1.724,8.411,1.79,10.938
			c5.947,4.274,9.968,10.648,11.34,17.685c-0.945,0.727-1.849,1.506-2.698,2.351c-4.724,4.7-7.573,10.905-8.501,18.077
			c-4.573-2.014-9.8-3.054-15.52-3.054c-1.788,0-3.614,0.101-5.475,0.301c1.305-12.254-1.797-22.839-9.055-30.061
			c-1.556-1.547-3.271-2.908-5.127-4.078c4.963-4.112,11.336-6.595,18.288-6.595c4.328,0,7.837-3.508,7.837-7.837
			s-3.509-7.837-7.837-7.837c-14.235,0-26.921,6.723-35.028,17.147c-0.941-0.061-1.893-0.099-2.863-0.099
			c-1.788,0-3.613,0.101-5.473,0.301c1.306-12.256-1.796-22.84-9.056-30.061c-6.114-6.082-14.663-9.297-24.725-9.297
			c-6.363,0-13.132,1.253-20.169,3.728c-6.893-3.882-14.652-5.916-22.675-5.916c-12.313,0-23.892,4.773-32.601,13.438
			c-5.742,5.712-9.684,12.605-11.779,19.938l-36.917-36.726c-4.065-4.045-9.467-6.273-15.211-6.273
			c-5.745,0-11.146,2.228-15.21,6.271c-11.602,11.542-18.477,26.544-19.709,42.69c-4.964-2.814-10.889-4.278-17.495-4.278
			c-6.011,0-12.395,1.181-19.024,3.515c-6.541-3.679-13.89-5.606-21.489-5.606c-11.772,0-22.836,4.606-31.156,12.969
			c-14.059,14.131-16.849,35.753-7.297,52.86c-6.063,17.461-4.119,33.299,5.439,42.908c0.985,0.99,2.042,1.895,3.155,2.726
			l-6.816,6.78c-3.651,3.632-5.661,8.465-5.661,13.607c0,0.437,0.017,0.869,0.046,1.301c-1.926,1.11-3.68,2.533-5.165,4.253
			c-3.822,4.424-5.506,10.27-4.622,16.037c5.288,34.571,22.897,66.232,49.583,89.146c16.106,13.829,34.917,23.911,55.058,29.782
			c-1.008,2.258-1.581,4.752-1.581,7.381v9.315c0,10.029,8.158,18.188,18.184,18.188h245.252c10.027,0,18.184-8.16,18.184-18.188
			v-9.315c0-2.629-0.573-5.122-1.58-7.381c9.466-2.754,18.659-6.437,27.394-11.016c3.834-2.009,5.312-6.746,3.303-10.58
			c-2.009-3.833-6.747-5.313-10.58-3.302c-13.939,7.306-29.175,12.072-44.79,14.091H138.499
			c-25.568-3.313-49.739-13.983-69.402-30.867c-5.121-4.398-9.866-9.158-14.211-14.223h54.552c4.319,0,7.82-3.5,7.82-7.82
			c0-4.32-3.501-7.821-7.82-7.821H43.365c-4.142-6.589-7.69-13.53-10.602-20.746h103.455c4.32,0,7.821-3.502,7.821-7.82
			c0-4.32-3.501-7.821-7.821-7.821H27.577c-1.154-4.393-2.088-8.854-2.779-13.375c-0.188-1.227,0.173-2.472,0.992-3.42
			c0.828-0.959,2.036-1.509,3.314-1.509h448.144c1.279,0,2.487,0.55,3.314,1.509c0.818,0.947,1.179,2.194,0.992,3.423
			c-4.438,29.008-18.794,56.057-40.425,76.163c-3.17,2.946-3.351,7.905-0.405,11.076c2.946,3.167,7.905,3.351,11.076,0.404
			c24.209-22.501,40.279-52.785,45.247-85.271c0.883-5.769-0.801-11.613-4.621-16.037c-1.856-2.149-4.125-3.842-6.635-5.023
			c2.277-1.273,4.352-2.827,6.193-4.659C501.432,323.07,503.378,307.601,497.428,290.544z M128.038,484.497
			c0-1.387,1.126-2.514,2.511-2.514h245.252c1.385,0,2.511,1.127,2.511,2.514v9.315c0,1.387-1.126,2.514-2.511,2.514H130.549
			c-1.384,0-2.511-1.127-2.511-2.514V484.497z M210.308,241.252c-1.297,3.845-2.214,7.607-2.754,11.244
			c-2.151,0.09-4.242,0.508-6.213,1.242c-0.891-3.081-2.028-6.091-3.383-9.003C202.293,244.323,206.462,243.136,210.308,241.252z
			 M177.4,198.374l27.904,27.76c-3.204,2.019-6.924,3.099-10.812,3.099c-10.447,0-20.236-9.621-20.236-20.092
			C174.258,205.268,175.354,201.562,177.4,198.374z M150.155,179.534c1.108-1.102,2.583-1.709,4.155-1.709s3.046,0.607,4.156,1.71
			l7.688,7.649c-4.902,6.252-7.569,13.897-7.569,21.956c0,1.666,0.116,3.313,0.342,4.935c-6.467,0.824-12.141,4.747-15.179,10.659
			l-5.38,10.469c-2.306-5.925-3.522-12.284-3.522-18.836C134.844,202.436,140.281,189.357,150.155,179.534z M35.006,335.213v-0.001
			c0.157-0.367,0.392-0.75,0.755-1.111l19.423-19.323c0.922-0.916,2.001-1.053,2.564-1.053c0.563,0,1.645,0.137,2.567,1.054
			l19.423,19.323c0.363,0.36,0.599,0.744,0.755,1.111H35.006z M75.678,307.952l-4.31-4.287c-3.641-3.621-8.478-5.614-13.62-5.614
			c-5.142,0-9.979,1.994-13.618,5.616l-1.226,1.219c-1.288-0.657-2.44-1.467-3.424-2.458c-5.66-5.691-5.885-16.807-0.602-29.735
			c1.001-2.451,0.699-5.242-0.807-7.42c-7.849-11.361-6.476-26.715,3.265-36.508c5.356-5.383,12.475-8.349,20.045-8.349
			c5.819,0,11.406,1.753,16.155,5.071c2.19,1.53,5.009,1.838,7.478,0.817c6.015-2.484,11.852-3.797,16.88-3.797
			c5.46,0,9.699,1.477,12.597,4.392c4.947,4.974,5.764,14.173,2.241,25.241c-0.89,2.796-0.143,5.855,1.934,7.926
			c1.543,1.538,3.629,2.336,5.745,2.281l-11.411,22.203c-1.599,0.064-3.167,0.235-4.719,0.463l-39.059-39.265
			c-3.052-3.068-8.013-3.08-11.083-0.029c-3.069,3.053-3.081,8.014-0.029,11.082l33.871,34.049
			C85.122,294.978,79.457,300.887,75.678,307.952z M135.594,316.615c-3.792,3.772-5.881,8.791-5.881,14.131
			c0,1.523,0.186,3.017,0.519,4.465H96.387c-0.328-4.619-2.274-8.918-5.594-12.222l-3.206-3.19
			c3.744-11.372,14.518-19.611,27.198-19.611c10.12,0,19.007,5.26,24.093,13.159L135.594,316.615z M129.368,286.996l28.318-55.096
			c1.068-2.076,3.682-2.911,5.756-1.832c1.806,0.939,3.517,1.99,5.142,3.129c-4.126,2.614-5.585,8.876-2.368,12.722
			c3.801,4.543,10.807,3.162,13.245-1.964c4.422,6.163,7.243,13.333,8.254,20.802l-26.236,26.102
			c-1.934-3.268-6.535-5.193-10.177-4.042c-4.808,1.52-6.953,7.383-4.255,11.658C142.215,293.345,136.17,289.369,129.368,286.996z
			 M186.684,335.213L186.684,335.213c8.044-3.813,3.911-15.779-4.237-15.758c-9.267,0.023-9.881,12.248-2.476,15.757h-14.715
			c-0.428-0.527-0.91-1.015-1.402-1.482c-3.07-3.05-8.032-3.035-11.082,0.033c-1.049,1.056-0.787,1.181-2.008,1.448
			c-0.563,0.123-1.951,0.188-2.505,0c-2.945-0.999-3.669-5.436-1.608-7.486l58.62-58.321c1.683-1.675,4.505-1.676,6.188,0
			c1.407,1.4,2.701,2.882,3.897,4.423c-3.229,0.861-6.172,4.088-6.606,7.406c-0.55,4.211,2.471,8.189,6.687,8.772
			c-1.675,5.077-2.745,10.371-3.174,15.798c-2.723-7.722-15.118-8.205-16.032,0.971c-0.855,8.565,11.976,13.43,15.803,4.821
			c0.04,8.2,1.53,16.169,4.347,23.617H186.684z M233.546,335.212c-3.812-7.308-5.846-15.47-5.846-23.954
			c0-13.928,5.437-27.01,15.31-36.833c1.108-1.102,2.583-1.708,4.156-1.708c1.572,0,3.047,0.606,4.156,1.709l7.689,7.65
			c-4.903,6.251-7.569,13.897-7.569,21.956c0,9.56,3.741,18.547,10.532,25.304c2.346,2.333,4.963,4.295,7.775,5.875H233.546z
			 M287.349,324.123c-5.414,0-10.499-2.095-14.322-5.898c-3.813-3.794-5.913-8.835-5.913-14.194c0-3.872,1.096-7.579,3.142-10.769
			l27.904,27.761C294.957,323.043,291.238,324.123,287.349,324.123z M304.951,335.212c1.557-0.875,3.052-1.869,4.475-2.979
			l2.995,2.979H304.951z M291.719,292.507c2.879-9.635,11.87-16.685,22.492-16.685c9.99,0,18.536,6.238,21.914,14.995
			c-0.607,0.486-1.196,1-1.755,1.556l-21.391,21.282L291.719,292.507z M376.994,334.78l-0.434,0.432h-43.92
			c-1.054-2.351-2.535-4.516-4.42-6.392l-4.132-4.11l21.334-21.226c2.263-2.252,6.057-2.253,8.322-0.002l23.25,23.133
			C379.231,328.84,379.231,332.554,376.994,334.78z M383.314,310.793l-18.516-18.422c-3.704-3.684-8.523-5.84-13.693-6.198
			c-5.372-15.142-19.873-26.025-36.893-26.025c-2.972,0-5.865,0.339-8.648,0.966l-46.801-46.562
			c-3.069-3.053-8.03-3.04-11.082,0.027c-3.052,3.069-3.04,8.031,0.028,11.082l42.737,42.519
			c-4.376,3.344-8.018,7.591-10.659,12.453l-4.177-4.156c-0.002-0.002-0.004-0.004-0.006-0.006l-13.228-13.158
			c-4.065-4.045-9.467-6.271-15.21-6.271c-5.744,0-11.146,2.227-15.21,6.271c-0.947,0.941-1.852,1.913-2.736,2.9
			c-1.964-2.755-4.163-5.373-6.605-7.814c0.28-4.803,1.594-10.223,3.975-15.988c1.02-2.468,0.712-5.287-0.817-7.476
			c-8.387-12.014-6.916-28.253,3.497-38.612c5.753-5.725,13.405-8.876,21.547-8.876c6.26,0,12.267,1.865,17.375,5.394
			c2.179,1.505,4.97,1.81,7.42,0.807c6.424-2.626,12.665-4.013,18.051-4.013c5.913,0,10.513,1.592,13.671,4.735
			c5.323,5.295,6.219,15.038,2.458,26.734c-0.899,2.793-0.161,5.854,1.91,7.932c2.071,2.077,5.129,2.825,7.926,1.936
			c4.753-1.513,9.224-2.28,13.289-2.28c5.916,0,10.518,1.593,13.676,4.735c5.322,5.296,6.218,15.04,2.458,26.736
			c-0.898,2.794-0.161,5.855,1.911,7.932c2.07,2.077,5.13,2.828,7.926,1.935c4.754-1.512,9.225-2.28,13.29-2.28
			c5.915,0,10.516,1.594,13.676,4.738c3.15,3.134,4.748,7.694,4.748,13.554C390.601,293.573,387.981,302.174,383.314,310.793z
			 M438.728,335.212h-33.473c-0.745-1.946-1.156-4.054-1.156-6.257c0-9.794,8.027-17.762,17.893-17.762s17.893,7.968,17.893,17.762
			C439.883,331.157,439.472,333.265,438.728,335.212z M482.295,285.207c-1.529,2.19-1.837,5.007-0.818,7.475
			c5.154,12.487,4.95,23.206-0.549,28.675c-2.833,2.817-6.982,4.246-12.335,4.246c-3.725,0-7.828-0.705-12.196-2.096
			c-0.443-0.142-0.893-0.228-1.345-0.287c-1.679-9.638-7.508-17.874-15.588-22.803l23.255-23.137
			c3.068-3.052,3.081-8.014,0.028-11.082c-3.054-3.068-8.015-3.081-11.082-0.027l-29.502,29.351c-0.059,0-0.116-0.004-0.174-0.004
			c-6.51,0-12.588,1.861-17.739,5.07c1.324-4.978,2.023-9.865,2.022-14.546c0-3.27-0.722-12.15-1.174-13.557
			c-3.435-10.679-2.65-19.542,2.151-24.318c2.832-2.817,6.981-4.246,12.333-4.246c4.939,0,10.675,1.278,16.587,3.693
			c2.45,1.003,5.241,0.698,7.42-0.807c4.658-3.218,10.141-4.92,15.853-4.92c7.429,0,14.411,2.876,19.66,8.097
			C488.603,259.435,489.945,274.248,482.295,285.207z"/>
	</g>
</g>
<g>
	<g>
		<path d="M432.358,417.928c-2.813-3.277-7.75-3.652-11.027-0.839c-4.967,4.266-10.362,8.101-16.034,11.398
			c-3.733,2.169-5.002,6.957-2.833,10.69c1.452,2.498,4.074,3.893,6.769,3.893c1.334,0,2.686-0.342,3.923-1.061
			c6.495-3.775,12.674-8.167,18.364-13.053C434.796,426.142,435.172,421.205,432.358,417.928z"/>
	</g>
</g>
<g>
	<g>
		<path d="M464.294,359.784c-4.151-1.18-8.479,1.226-9.664,5.378c-3.745,13.145-9.906,25.315-18.314,36.168
			c-2.645,3.416-2.02,8.327,1.395,10.972c1.424,1.104,3.11,1.637,4.783,1.637c2.335,0.001,4.648-1.042,6.188-3.03
			c9.635-12.44,16.696-26.388,20.991-41.459C470.856,365.296,468.449,360.968,464.294,359.784z"/>
	</g>
</g>
<g>
</g>
<g>
</g>
<g>
</g>
<g>
</g>
<g>
</g>
<g>
</g>
<g>
</g>
<g>
</g>
<g>
</g>
<g>
</g>
<g>
</g>
<g>
</g>
<g>
</g>
<g>
</g>
<g>
</g>
</svg>
