<?xml version="1.0" encoding="iso-8859-1"?>
<!-- Generator: Adobe Illustrator 19.0.0, SVG Export Plug-In . SVG Version: 6.00 Build 0)  -->
<svg version="1.1" id="Capa_1" xmlns="http://www.w3.org/2000/svg" xmlns:xlink="http://www.w3.org/1999/xlink" x="0px" y="0px"
	 viewBox="0 0 512 512" style="enable-background:new 0 0 512 512;" xml:space="preserve">
<g>
	<g>
		<path d="M496.99,241.968h-53.622l60.505-79.255l0.56-0.785c13.786-20.69,8.214-48.608-12.479-62.397
			c-20.618-13.754-48.304-8.282-62.18,12.144l-96.397,130.293H15c-8.284,0-15,6.716-15,15v22.918
			c0,82.156,57.877,151.037,134.997,168.043v19.036c0,24.813,20.187,44.999,44.999,44.999h151.997
			c24.813,0,44.999-20.187,44.999-44.999v-19.036c77.121-17.005,134.997-86.153,134.997-168.043v-22.918
			C511.99,248.683,505.274,241.968,496.99,241.968z M454.089,129.25l0.422-0.601c4.548-6.82,13.787-8.838,20.804-4.158
			c6.826,4.548,8.661,13.649,4.373,20.464l-74.061,97.012h-34.931L454.089,129.25z M346.993,466.963c0,8.271-6.729,15-15,15H179.996
			c-8.271,0-15-6.729-15-15v-15.157c2.35,0.096,4.709,0.157,7.082,0.157h167.833c2.373,0,4.732-0.062,7.082-0.157V466.963z
			 M339.911,421.964H172.079c-59.968,0-111.377-37.444-132.193-90.098h432.221C451.288,384.519,399.879,421.964,339.911,421.964z
			 M481.991,279.885c0,7.51-0.591,14.884-1.719,22.082H31.718c-1.128-7.199-1.719-14.573-1.719-22.082v-7.918h451.991V279.885z"/>
	</g>
</g>
<g>
	<g>
		<path d="M190.065,90.518c14.236-9.491,22.735-25.932,22.735-43.98s-8.499-34.489-22.735-43.979
			c-6.893-4.595-16.206-2.733-20.801,4.16c-4.596,6.893-2.733,16.206,4.16,20.801c5.871,3.914,9.376,11.024,9.376,19.019
			c0,7.995-3.505,15.105-9.376,19.02c-14.236,9.49-22.735,25.37-22.735,42.479c0,17.109,8.499,32.989,22.735,42.48
			c6.896,4.597,16.209,2.73,20.801-4.16c4.596-6.893,2.733-16.206-4.16-20.801c-5.958-3.972-9.376-10.358-9.376-17.52
			C180.689,100.875,184.107,94.489,190.065,90.518z"/>
	</g>
</g>
<g>
	<g>
		<path d="M265.064,90.518c14.236-9.491,22.735-25.932,22.735-43.98S279.3,12.048,265.064,2.558
			c-6.894-4.595-16.207-2.733-20.801,4.16c-4.596,6.893-2.733,16.206,4.16,20.801c5.871,3.914,9.376,11.024,9.376,19.019
			c0,7.995-3.505,15.105-9.376,19.02c-14.236,9.49-22.735,25.37-22.735,42.479c0,17.109,8.499,32.989,22.735,42.48
			c6.896,4.597,16.209,2.73,20.801-4.16c4.596-6.893,2.733-16.206-4.16-20.801c-5.958-3.972-9.376-10.358-9.376-17.52
			C255.688,100.875,259.106,94.489,265.064,90.518z"/>
	</g>
</g>
<g>
	<g>
		<path d="M341.062,90.518c14.236-9.491,22.735-25.932,22.735-43.98s-8.499-34.489-22.734-43.979
			c-6.894-4.595-16.207-2.733-20.801,4.16c-4.596,6.893-2.733,16.206,4.16,20.801c5.871,3.914,9.376,11.024,9.376,19.019
			c0,7.995-3.505,15.105-9.376,19.02c-14.236,9.49-22.735,25.37-22.735,42.479c0,17.109,8.499,32.989,22.735,42.48
			c6.896,4.597,16.209,2.73,20.801-4.16c4.596-6.893,2.733-16.206-4.16-20.801c-5.958-3.972-9.376-10.358-9.376-17.52
			C331.687,100.875,335.104,94.489,341.062,90.518z"/>
	</g>
</g>
<g>
</g>
<g>
</g>
<g>
</g>
<g>
</g>
<g>
</g>
<g>
</g>
<g>
</g>
<g>
</g>
<g>
</g>
<g>
</g>
<g>
</g>
<g>
</g>
<g>
</g>
<g>
</g>
<g>
</g>
</svg>
