<svg xmlns="http://www.w3.org/2000/svg" xmlns:xlink="http://www.w3.org/1999/xlink" viewBox="0 0 116 92">
  <defs>
    <style>
      .cls-1 {
        clip-path: url(#clip-Custom_Size_1);
      }

      .cls-2 {
        fill: #ee1528;
      }

      .cls-3 {
        fill: #f2f2f2;
        stroke: #ee1528;
        stroke-width: 6px;
      }

      .cls-4 {
        stroke: none;
      }

      .cls-5 {
        fill: none;
      }

      .cls-6 {
        fill: #fff;
      }
    </style>
    <clipPath id="clip-Custom_Size_1">
      <rect width="116" height="92"/>
    </clipPath>
  </defs>
  <g id="Custom_Size_1" data-name="Custom Size – 1" class="cls-1">
    <rect class="cls-6" width="116" height="92"/>
    <g id="empty_plate" data-name="empty plate" transform="translate(-158 -103)">
      <path id="Path_2" data-name="Path 2" class="cls-2" d="M22.735,81.027a2.791,2.791,0,0,1-2.89-2.681V55.183a3.361,3.361,0,0,0-3.437-3.3H15.8V78.346a2.791,2.791,0,0,1-2.89,2.681,2.791,2.791,0,0,1-2.89-2.681V51.885H9.263a3.4,3.4,0,0,0-3.483,3.3V78.346a2.791,2.791,0,0,1-2.89,2.681A2.791,2.791,0,0,1,0,78.346V55.183c0-4.753,4.139-8.659,9.263-8.659h.755V2.681A2.791,2.791,0,0,1,12.909,0,2.791,2.791,0,0,1,15.8,2.681V46.524h.609a8.949,8.949,0,0,1,9.217,8.659V78.346A2.791,2.791,0,0,1,22.735,81.027Z" transform="translate(183.625 189) rotate(180)"/>
      <path id="Path_3" data-name="Path 3" class="cls-2" d="M417.968,5.864a5.369,5.369,0,0,0-5.566-.787,4.842,4.842,0,0,0-3.052,4.465V82.934a2.868,2.868,0,0,0,5.726,0V55.642l8.435-5.225a2.676,2.676,0,0,0,1.3-2.261V20.139A18.6,18.6,0,0,0,417.968,5.864ZM419.083,46.7l-4.008,2.476V10.735a13.534,13.534,0,0,1,4.008,9.4Z" transform="translate(-150.81 103.362)"/>
      <g id="Ellipse_40" data-name="Ellipse 40" class="cls-3" transform="translate(172.449 103)">
        <ellipse class="cls-4" cx="46.049" cy="46" rx="46.049" ry="46"/>
        <ellipse class="cls-5" cx="46.049" cy="46" rx="43.049" ry="43"/>
      </g>
      <path id="Path_470" data-name="Path 470" class="cls-3" d="M32.031,3A29,29,0,1,1,3,32,29.015,29.015,0,0,1,32.031,3Z" transform="translate(186.467 117)"/>
    </g>
  </g>
</svg>
