<svg xmlns="http://www.w3.org/2000/svg" viewBox="0 0 10.218 38.801">
  <defs>
    <style>
      .cls-1 {
        fill: #ee1528;
      }
    </style>
  </defs>
  <path id="Path_1" data-name="Path 1" class="cls-1" d="M230.088,38.8c-.764,0-.678-.575-.678-1.284l.27-11.092c0-.86-.176-2.807-1.914-2.778h-1v13.87c.019-.034.094,1.284-.67,1.284s-.684-1.279-.674-1.284V23.647h-1.07c-1.635.018-1.87,1.918-1.87,2.778l.2,11.092c0,.709.034,1.284-.73,1.284-.54.011-.637-1.3-.653-1.284l-.385-11.092c0-2.276.983-4.146,3.434-4.146h1.07l-.709-21a1.386,1.386,0,0,1,2.765,0l-.713,21h1c2.451,0,3.367,1.87,3.367,4.146l-.34,11.092C230.787,37.493,230.735,38.807,230.088,38.8Z" transform="translate(231.132 38.801) rotate(180)"/>
</svg>
