<svg xmlns="http://www.w3.org/2000/svg" viewBox="16.784 23 39.216 40">
  <defs>
    <style>
      .cls-1 {
        fill: #ee1528;
      }
    </style>
  </defs>
  <g id="menu_icon" data-name="menu icon" transform="translate(6.101 23.922)">
    <path id="Path_1" data-name="Path 1" class="cls-1" d="M18.368,4.664c-4.027,0-7.051,3.96-7.051,7.5v3.16a6.779,6.779,0,0,0,5.622,6.516V42.57a1.385,1.385,0,0,0,2.765,0V21.855a6.789,6.789,0,0,0,5.714-6.531v-3.16C25.418,8.624,22.395,4.664,18.368,4.664Zm4.286,10.66a4.178,4.178,0,0,1-4.286,4.039,4.178,4.178,0,0,1-4.286-4.039v-3.16c0-2.213,1.92-4.885,4.286-4.885s4.286,2.673,4.286,4.885Z" transform="translate(6.022 50.395) rotate(-90)"/>
    <path id="Path_2" data-name="Path 2" class="cls-1" d="M230.793,38.8a1.336,1.336,0,0,1-1.383-1.284V26.425a1.608,1.608,0,0,0-1.644-1.579h-.291V37.517a1.386,1.386,0,0,1-2.765,0V24.846h-.361a1.628,1.628,0,0,0-1.666,1.579V37.517a1.386,1.386,0,0,1-2.765,0V26.425a4.3,4.3,0,0,1,4.431-4.146h.361v-21a1.386,1.386,0,0,1,2.765,0v21h.291a4.283,4.283,0,0,1,4.409,4.146V37.517A1.336,1.336,0,0,1,230.793,38.8Z" transform="translate(10.683 244.874) rotate(-90)"/>
    <path id="Path_3" data-name="Path 3" class="cls-1" d="M413.512,5.228a2.59,2.59,0,0,0-2.688-.381,2.341,2.341,0,0,0-1.474,2.158V42.485a1.385,1.385,0,0,0,2.765,0V29.292l4.073-2.526a1.294,1.294,0,0,0,.627-1.093V12.129A9,9,0,0,0,413.512,5.228Zm.539,19.739-1.935,1.2V7.583a6.546,6.546,0,0,1,1.935,4.546Z" transform="translate(6.05 415.894) rotate(-90)"/>
  </g>
</svg>
