<svg id="top_logo" data-name="top logo" xmlns="http://www.w3.org/2000/svg" viewBox="96 16 167.569 56">
  <defs>
    <style>
      .cls-1 {
        fill: #ee1528;
      }

      .cls-2 {
        fill: #fff;
        stroke: rgba(0,0,0,0);
      }
    </style>
  </defs>
  <path id="Path_475" data-name="Path 475" class="cls-1" d="M0,0H167.569V56H0Z" transform="translate(96 16)"/>
  <path id="Path_415" data-name="Path 415" class="cls-2" d="M43.51-23.393h4.659V-3.316H43.51v-2.1a8.9,8.9,0,0,1-6.163,2.68,9.6,9.6,0,0,1-4.262-.97,8.681,8.681,0,0,1-2.622-2.04,11.192,11.192,0,0,1-2.7-7.668,10.847,10.847,0,0,1,2.7-7.524,8.7,8.7,0,0,1,6.761-3.009,8.538,8.538,0,0,1,6.287,2.886ZM32.5-13.416a6.993,6.993,0,0,0,1.546,4.7,5.064,5.064,0,0,0,4,1.835,5.322,5.322,0,0,0,4.164-1.773A6.865,6.865,0,0,0,43.8-13.313a6.865,6.865,0,0,0-1.587-4.659,5.248,5.248,0,0,0-4.123-1.793,5.127,5.127,0,0,0-4,1.814A6.687,6.687,0,0,0,32.5-13.416Z" transform="translate(126.603 57.18)"/>
  <path id="Path_476" data-name="Path 476" class="cls-2" d="M8.035,7.609H3.4v-31H8.035v2.185A8.582,8.582,0,0,1,14.26-23.95,8.68,8.68,0,0,1,21.083-20.9,11.016,11.016,0,0,1,23.8-13.252a10.847,10.847,0,0,1-2.7,7.524,8.691,8.691,0,0,1-6.761,2.989A8.641,8.641,0,0,1,8.035-5.563Zm11.028-20.84a6.934,6.934,0,0,0-1.567-4.7,5.064,5.064,0,0,0-4-1.835,5.3,5.3,0,0,0-4.143,1.773,6.721,6.721,0,0,0-1.587,4.659A6.865,6.865,0,0,0,9.355-8.675a5.209,5.209,0,0,0,4.123,1.793A5.027,5.027,0,0,0,17.456-8.7,6.586,6.586,0,0,0,19.063-13.231Z" transform="translate(126.603 57.18)"/>
  <path id="Path_416" data-name="Path 416" class="cls-2" d="M4.84,2.86c.074.138-.2,12.405-.2,12.405q0,4.988,3.937,4.988t3.937-4.988L12.56,4.128a14.216,14.216,0,0,0,4.676-.994c.05.042-.087,12.234-.087,12.234a12.935,12.935,0,0,1-.6,4.164,6.994,6.994,0,0,1-2,2.824A8.788,8.788,0,0,1,8.575,24.4a8.758,8.758,0,0,1-5.957-2.041A7.108,7.108,0,0,1,.577,19.532,11.482,11.482,0,0,1,0,15.368L.263,0A13.966,13.966,0,0,0,4.84,2.86Z" transform="matrix(0.848, -0.53, 0.53, 0.848, 203.154, 38.05)"/>
  <path id="Path_417" data-name="Path 417" class="cls-2" d="M8.035,7.609H3.4v-31H8.035v2.185A8.582,8.582,0,0,1,14.26-23.95,8.68,8.68,0,0,1,21.083-20.9,11.016,11.016,0,0,1,23.8-13.252a10.847,10.847,0,0,1-2.7,7.524,8.691,8.691,0,0,1-6.761,2.989A8.641,8.641,0,0,1,8.035-5.563Zm11.028-20.84a6.934,6.934,0,0,0-1.567-4.7,5.064,5.064,0,0,0-4-1.835,5.3,5.3,0,0,0-4.143,1.773,6.721,6.721,0,0,0-1.587,4.659A6.865,6.865,0,0,0,9.355-8.675a5.209,5.209,0,0,0,4.123,1.793A5.027,5.027,0,0,0,17.456-8.7,6.586,6.586,0,0,0,19.063-13.231Z" transform="translate(176.572 57.18)"/>
</svg>
